<?xml version="1.0" encoding="UTF-8"?><svg xmlns="http://www.w3.org/2000/svg" xmlns:xlink="http://www.w3.org/1999/xlink" fill-opacity="1" color-rendering="auto" color-interpolation="auto" text-rendering="auto" stroke="black" stroke-linecap="square" width="753" stroke-miterlimit="10" shape-rendering="auto" stroke-opacity="1" fill="black" stroke-dasharray="none" font-weight="normal" stroke-width="1" height="608" font-family="'Dialog'" font-style="normal" stroke-linejoin="miter" font-size="12px" stroke-dashoffset="0" image-rendering="auto">
  <!--Generated by ySVG 2.5-->
  <defs id="genericDefs"/>
  <g>
    <defs id="defs1">
      <clipPath clipPathUnits="userSpaceOnUse" id="clipPath1">
        <path d="M0 0 L753 0 L753 608 L0 608 L0 0 Z"/>
      </clipPath>
      <clipPath clipPathUnits="userSpaceOnUse" id="clipPath2">
        <path d="M35 4 L788 4 L788 612 L35 612 L35 4 Z"/>
      </clipPath>
    </defs>
    <g fill="white" text-rendering="geometricPrecision" shape-rendering="geometricPrecision" transform="translate(-35,-4)" stroke="white">
      <rect x="35" width="753" height="608" y="4" clip-path="url(#clipPath2)" stroke="none"/>
    </g>
    <g fill="rgb(255,204,0)" text-rendering="geometricPrecision" shape-rendering="geometricPrecision" transform="matrix(1,0,0,1,-35,-4)" stroke="rgb(255,204,0)">
      <path d="M306.5 67.6809 L372.9868 19.5 L467.0132 19.5 L533.5 67.6809 L533.5 135.8191 L467.0132 184 L372.9868 184 L306.5 135.8191 Z" fill-rule="evenodd" clip-path="url(#clipPath2)" stroke="none"/>
    </g>
    <g text-rendering="geometricPrecision" stroke-miterlimit="1.45" shape-rendering="geometricPrecision" transform="matrix(1,0,0,1,-35,-4)" stroke-linecap="butt">
      <path fill="none" d="M306.5 67.6809 L372.9868 19.5 L467.0132 19.5 L533.5 67.6809 L533.5 135.8191 L467.0132 184 L372.9868 184 L306.5 135.8191 Z" fill-rule="evenodd" clip-path="url(#clipPath2)"/>
      <text x="388.8369" xml:space="preserve" y="85.0859" clip-path="url(#clipPath2)" font-family="sans-serif" stroke="none">Function A</text>
      <text x="418.1016" xml:space="preserve" y="99.2188" clip-path="url(#clipPath2)" font-family="sans-serif" stroke="none"> </text>
      <text x="388.6904" xml:space="preserve" y="113.3516" clip-path="url(#clipPath2)" font-family="sans-serif" stroke="none">Properties:</text>
      <text x="330.8291" xml:space="preserve" y="127.4844" clip-path="url(#clipPath2)" font-family="sans-serif" stroke="none">A.prototype = &lt;Some Object&gt;</text>
    </g>
    <g fill="rgb(255,204,0)" text-rendering="geometricPrecision" shape-rendering="geometricPrecision" transform="matrix(1,0,0,1,-35,-4)" stroke="rgb(255,204,0)">
      <rect x="606.5" y="19.5" clip-path="url(#clipPath2)" width="166" rx="4" ry="4" height="117" stroke="none"/>
    </g>
    <g text-rendering="geometricPrecision" stroke-miterlimit="1.45" shape-rendering="geometricPrecision" transform="matrix(1,0,0,1,-35,-4)" stroke-linecap="butt">
      <rect x="606.5" y="19.5" clip-path="url(#clipPath2)" fill="none" width="166" rx="4" ry="4" height="117"/>
      <text x="652.8174" xml:space="preserve" y="54.2695" clip-path="url(#clipPath2)" font-family="sans-serif" stroke="none">Some Object</text>
      <text x="687.6016" xml:space="preserve" y="68.4023" clip-path="url(#clipPath2)" font-family="sans-serif" stroke="none"> </text>
      <text x="658.1904" xml:space="preserve" y="82.5352" clip-path="url(#clipPath2)" font-family="sans-serif" stroke="none">Properties:</text>
      <text x="633.124" xml:space="preserve" y="96.668" clip-path="url(#clipPath2)" font-family="sans-serif" stroke="none">function Afunc1() {}</text>
      <text x="633.124" xml:space="preserve" y="110.8008" clip-path="url(#clipPath2)" font-family="sans-serif" stroke="none">function Afunc2() {}</text>
    </g>
    <g fill="rgb(255,204,0)" text-rendering="geometricPrecision" shape-rendering="geometricPrecision" transform="matrix(1,0,0,1,-35,-4)" stroke="rgb(255,204,0)">
      <path d="M306.5 271.9842 L377.6731 226 L478.3269 226 L549.5 271.9842 L549.5 337.0158 L478.3269 383 L377.6731 383 L306.5 337.0158 Z" fill-rule="evenodd" clip-path="url(#clipPath2)" stroke="none"/>
    </g>
    <g text-rendering="geometricPrecision" stroke-miterlimit="1.45" shape-rendering="geometricPrecision" transform="matrix(1,0,0,1,-35,-4)" stroke-linecap="butt">
      <path fill="none" d="M306.5 271.9842 L377.6731 226 L478.3269 226 L549.5 271.9842 L549.5 337.0158 L478.3269 383 L377.6731 383 L306.5 337.0158 Z" fill-rule="evenodd" clip-path="url(#clipPath2)"/>
      <text x="384.4619" xml:space="preserve" y="287.8359" clip-path="url(#clipPath2)" font-family="sans-serif" stroke="none">Function Temp</text>
      <text x="426.1016" xml:space="preserve" y="301.9688" clip-path="url(#clipPath2)" font-family="sans-serif" stroke="none"> </text>
      <text x="396.6904" xml:space="preserve" y="316.1016" clip-path="url(#clipPath2)" font-family="sans-serif" stroke="none">Properties:</text>
      <text x="326.4541" xml:space="preserve" y="330.2344" clip-path="url(#clipPath2)" font-family="sans-serif" stroke="none">Temp.prototype = &lt;Some Object&gt;</text>
    </g>
    <g fill="rgb(255,204,0)" text-rendering="geometricPrecision" shape-rendering="geometricPrecision" transform="matrix(1,0,0,1,-35,-4)" stroke="rgb(255,204,0)">
      <path d="M306.5 494.4266 L377.6731 452.25 L478.3269 452.25 L549.5 494.4266 L549.5 554.0734 L478.3269 596.25 L377.6731 596.25 L306.5 554.0734 Z" fill-rule="evenodd" clip-path="url(#clipPath2)" stroke="none"/>
    </g>
    <g text-rendering="geometricPrecision" stroke-miterlimit="1.45" shape-rendering="geometricPrecision" transform="matrix(1,0,0,1,-35,-4)" stroke-linecap="butt">
      <path fill="none" d="M306.5 494.4266 L377.6731 452.25 L478.3269 452.25 L549.5 494.4266 L549.5 554.0734 L478.3269 596.25 L377.6731 596.25 L306.5 554.0734 Z" fill-rule="evenodd" clip-path="url(#clipPath2)"/>
      <text x="397.5254" xml:space="preserve" y="507.5859" clip-path="url(#clipPath2)" font-family="sans-serif" stroke="none">Function B</text>
      <text x="426.1016" xml:space="preserve" y="521.7188" clip-path="url(#clipPath2)" font-family="sans-serif" stroke="none"> </text>
      <text x="396.6904" xml:space="preserve" y="535.8516" clip-path="url(#clipPath2)" font-family="sans-serif" stroke="none">Properties:</text>
      <text x="338.8643" xml:space="preserve" y="549.9844" clip-path="url(#clipPath2)" font-family="sans-serif" stroke="none">B.prototype = &lt;Temp Object&gt;</text>
    </g>
    <g fill="rgb(255,204,0)" text-rendering="geometricPrecision" shape-rendering="geometricPrecision" transform="matrix(1,0,0,1,-35,-4)" stroke="rgb(255,204,0)">
      <rect x="50" y="45" clip-path="url(#clipPath2)" width="178" rx="4" ry="4" height="106.5" stroke="none"/>
    </g>
    <g text-rendering="geometricPrecision" stroke-miterlimit="1.45" shape-rendering="geometricPrecision" transform="matrix(1,0,0,1,-35,-4)" stroke-linecap="butt">
      <rect x="50" y="45" clip-path="url(#clipPath2)" fill="none" width="178" rx="4" ry="4" height="106.5"/>
      <text x="114.0391" xml:space="preserve" y="60.3867" clip-path="url(#clipPath2)" font-family="sans-serif" stroke="none">A Object</text>
      <text x="137.1016" xml:space="preserve" y="74.5195" clip-path="url(#clipPath2)" font-family="sans-serif" stroke="none"> </text>
      <text x="107.6904" xml:space="preserve" y="88.6523" clip-path="url(#clipPath2)" font-family="sans-serif" stroke="none">Properties:</text>
      <text x="65.8486" xml:space="preserve" y="102.7852" clip-path="url(#clipPath2)" font-family="sans-serif" stroke="none">constructor = Function A</text>
      <text x="81.6309" xml:space="preserve" y="116.918" clip-path="url(#clipPath2)" font-family="sans-serif" stroke="none">AProp1 = "Avalue1"</text>
      <text x="81.1709" xml:space="preserve" y="131.0508" clip-path="url(#clipPath2)" font-family="sans-serif" stroke="none">Aprop2 = "Avalue2"</text>
      <text x="56.3652" xml:space="preserve" y="145.1836" clip-path="url(#clipPath2)" font-family="sans-serif" stroke="none">__proto__ = &lt;Some Object&gt;</text>
    </g>
    <g fill="rgb(255,204,0)" text-rendering="geometricPrecision" shape-rendering="geometricPrecision" transform="matrix(1,0,0,1,-35,-4)" stroke="rgb(255,204,0)">
      <rect x="50" y="239.25" clip-path="url(#clipPath2)" width="178" rx="4" ry="4" height="106.5" stroke="none"/>
    </g>
    <g text-rendering="geometricPrecision" stroke-miterlimit="1.45" shape-rendering="geometricPrecision" transform="matrix(1,0,0,1,-35,-4)" stroke-linecap="butt">
      <rect x="50" y="239.25" clip-path="url(#clipPath2)" fill="none" width="178" rx="4" ry="4" height="106.5"/>
      <text x="101.6641" xml:space="preserve" y="254.6367" clip-path="url(#clipPath2)" font-family="sans-serif" stroke="none">Temp Object</text>
      <text x="137.1016" xml:space="preserve" y="268.7695" clip-path="url(#clipPath2)" font-family="sans-serif" stroke="none"> </text>
      <text x="107.6904" xml:space="preserve" y="282.9023" clip-path="url(#clipPath2)" font-family="sans-serif" stroke="none">Properties:</text>
      <text x="53.4736" xml:space="preserve" y="297.0352" clip-path="url(#clipPath2)" font-family="sans-serif" stroke="none">constructor = Function Temp</text>
      <text x="83.3125" xml:space="preserve" y="311.168" clip-path="url(#clipPath2)" font-family="sans-serif" stroke="none">function Bfunc3() {}</text>
      <text x="83.3125" xml:space="preserve" y="325.3008" clip-path="url(#clipPath2)" font-family="sans-serif" stroke="none">function Bfunc4() {}</text>
      <text x="56.3652" xml:space="preserve" y="339.4336" clip-path="url(#clipPath2)" font-family="sans-serif" stroke="none">__proto__ = &lt;Some Object&gt;</text>
    </g>
    <g fill="rgb(255,204,0)" text-rendering="geometricPrecision" shape-rendering="geometricPrecision" transform="matrix(1,0,0,1,-35,-4)" stroke="rgb(255,204,0)">
      <rect x="50" y="471" clip-path="url(#clipPath2)" width="178" rx="4" ry="4" height="106.5" stroke="none"/>
    </g>
    <g text-rendering="geometricPrecision" stroke-miterlimit="1.45" shape-rendering="geometricPrecision" transform="matrix(1,0,0,1,-35,-4)" stroke-linecap="butt">
      <rect x="50" y="471" clip-path="url(#clipPath2)" fill="none" width="178" rx="4" ry="4" height="106.5"/>
      <text x="114.7275" xml:space="preserve" y="486.3867" clip-path="url(#clipPath2)" font-family="sans-serif" stroke="none">B Object</text>
      <text x="137.1016" xml:space="preserve" y="500.5195" clip-path="url(#clipPath2)" font-family="sans-serif" stroke="none"> </text>
      <text x="107.6904" xml:space="preserve" y="514.6523" clip-path="url(#clipPath2)" font-family="sans-serif" stroke="none">Properties:</text>
      <text x="66.5371" xml:space="preserve" y="528.7852" clip-path="url(#clipPath2)" font-family="sans-serif" stroke="none">constructor = Function B</text>
      <text x="81.7305" xml:space="preserve" y="542.918" clip-path="url(#clipPath2)" font-family="sans-serif" stroke="none">Bprop1 = "BValue1"</text>
      <text x="82.5479" xml:space="preserve" y="557.0508" clip-path="url(#clipPath2)" font-family="sans-serif" stroke="none">Bprop2 = "Bvalue2"</text>
      <text x="55.7119" xml:space="preserve" y="571.1836" clip-path="url(#clipPath2)" font-family="sans-serif" stroke="none">__proto__ = &lt;Temp Object&gt;</text>
      <path fill="none" d="M494.1504 39.1426 L499.1162 36.4277 L515.4961 29.6797 L532.0615 25.0371 L548.8125 22.5 L565.749 22.0684 L582.8711 23.7422 L598.8717 27.2361 L598.9665 27.268" clip-path="url(#clipPath2)"/>
      <path d="M606.5948 29.6779 L596.6585 21.2953 L598.0129 26.9667 L593.6461 30.8307 Z" clip-path="url(#clipPath2)" stroke="none"/>
      <path fill="none" d="M546.9447 270.3113 L562.5832 261.7265 L580.7529 249.6785 L597.7054 236.225 L613.4404 221.366 L627.9582 205.1015 L641.2585 187.4316 L653.3416 168.3562 L664.2072 147.8754 L666.0116 143.7823" clip-path="url(#clipPath2)"/>
      <path d="M669.2386 136.462 L659.8229 145.4255 L665.6082 144.6973 L668.9733 149.4593 Z" clip-path="url(#clipPath2)" stroke="none"/>
      <path fill="none" d="M213.3206 44.9941 L227.5645 38.9727 L245.1953 33.7031 L262.7988 30.6289 L280.375 29.75 L297.9238 31.0664 L315.4453 34.5781 L332.6296 40.1841 L332.7207 40.2253" clip-path="url(#clipPath2)"/>
      <path d="M340.0243 43.49 L331.1093 34.0282 L331.8078 39.8172 L327.0285 43.1577 Z" clip-path="url(#clipPath2)" stroke="none"/>
      <path fill="none" d="M365.439 459.5067 L363.0815 457.1699 L328.7893 425.9155 L293.2753 396.1849 L256.5393 367.978 L231.3166 350.2473" clip-path="url(#clipPath2)"/>
      <path d="M224.7719 345.6466 L231.7135 356.6381 L232.1347 350.8224 L237.4644 348.4572 Z" clip-path="url(#clipPath2)" stroke="none"/>
      <path fill="none" d="M218.7801 239.259 L231.8906 234.1602 L250.1875 229.2656 L268.3906 226.6289 L286.5 226.25 L304.5156 228.1289 L322.4375 232.2656 L340.2656 238.6602 L343.2245 240.1037" clip-path="url(#clipPath2)"/>
      <path d="M350.4144 243.6116 L341.8219 233.8561 L342.3257 239.6653 L337.4371 242.8435 Z" clip-path="url(#clipPath2)" stroke="none"/>
      <path fill="none" d="M209.5919 470.9952 L211.25 470.0625 L229.3125 462.1602 L247.375 456.5156 L265.4375 453.1289 L283.5 452 L301.5625 453.1289 L319.625 456.5156 L337.6875 462.1602 L343.7287 464.8032" clip-path="url(#clipPath2)"/>
      <path d="M351.058 468.0097 L342.0682 458.6191 L342.8126 464.4024 L338.06 467.7807 Z" clip-path="url(#clipPath2)" stroke="none"/>
    </g>
  </g>
</svg>
